<?xml version="1.0" encoding="UTF-8"?>
<svg width="20" height="20" viewBox="0 0 394 395" fill="currentColor" xmlns="http://www.w3.org/2000/svg">
<path fill-rule="evenodd" clip-rule="evenodd" d="M208.796 238.537C222.991 246.733 241.142 241.869 249.337 227.674C257.532 213.48 252.669 195.329 238.474 187.134L184.894 156.199C170.699 148.004 152.548 152.867 144.353 167.062C136.158 181.257 141.021 199.408 155.216 207.603L208.796 238.537Z"/>
<path fill-rule="evenodd" clip-rule="evenodd" d="M157.216 87.4272C149.113 82.8477 139.741 80.2324 129.754 80.2324C99.0155 80.2324 74.0968 105.011 74.0968 135.577C74.0968 143.937 75.9607 151.864 79.2978 158.969C59.9183 149.832 46.5067 130.118 46.5067 107.271C46.5067 75.7222 72.0824 50.1465 103.632 50.1465C128.203 50.1465 149.151 65.6602 157.216 87.4272Z"/>
<path d="M241.672 13.184C213.787 -2.91497 179.427 -2.8912 151.565 13.2464L74.0968 58.1152C84.8156 52.6465 95.8781 51.6152 111.795 60.8028L358.961 203.506V108.613C358.961 91.4645 349.812 75.6183 334.961 67.044L241.672 13.184Z"/>
<path fill-rule="evenodd" clip-rule="evenodd" d="M236.516 307.423C244.527 311.932 253.775 314.504 263.623 314.504C294.189 314.504 318.968 289.725 318.968 259.159C318.968 250.661 317.052 242.61 313.63 235.415C333.419 244.391 347.183 264.32 347.183 287.465C347.183 319.014 321.607 344.59 290.058 344.59C265.529 344.59 244.611 329.13 236.516 307.423Z"/>
<path d="M152.018 381.55C179.902 397.649 214.263 397.625 242.125 381.488L319.593 336.619C308.874 342.088 297.811 343.119 281.894 333.931L34.7285 191.228L34.7285 286.121C34.7285 303.27 43.8773 319.116 58.7286 327.69L152.018 381.55Z"/>
</svg>
